# xmcd
#
# Track frame offsets:
#	150
#	21700
#	38273
#	54110
#	73628
#	87415
#	102834
#	121897
#	136558
#	152085
#	167516
#	187494
#	208513
#	225233
#	243589
#	258332
#	280040
#	295030
#
# Disc length: 4202 seconds
#
# Revision: 0
# Processed by: cddbd v1.5.1PL0 Copyright (c) Steve Scherf et al.
# Submitted via: dBpowerAMP V4.0
#
DISCID=ee106812
DTITLE=Vários - sertanejo pra la de bom
DYEAR=1900
DGENRE=
TTITLE0=sinônimos/chitãozinho e xororó
TTITLE1=apaixonado/hugo e tiago
TTITLE2=o amor esta aqui/bruno e marrone
TTITLE3=eu mereço/rick e renner
TTITLE4=acordo pra sonhar/ataide e alexandre
TTITLE5=quer namorar comigo - edson e hudson
TTITLE6=i love you baby - cezr e paulinho
TTITLE7=dois em um - roberta miranda
TTITLE8=so você - gino e geno
TTITLE9=quero dizer que te amo - alan e aladin
TTITLE10=rasgando as madrugadas - eduardo costa
TTITLE11=eterno amor /sid gomes e rafael
TTITLE12=olhos de amor /gian e giovani
TTITLE13=coisas do coração - jad e jeferson
TTITLE14=mel meu /leonardo
TTITLE15=mãe - rick e renner
TTITLE16=amor infinito - chitãozinho e xororó
TTITLE17=se não tivesse ido - bruno e marrone
EXTD=
EXTT0=
EXTT1=
EXTT2=
EXTT3=
EXTT4=
EXTT5=
EXTT6=
EXTT7=
EXTT8=
EXTT9=
EXTT10=
EXTT11=
EXTT12=
EXTT13=
EXTT14=
EXTT15=
EXTT16=
EXTT17=
PLAYORDER=
